<mxfile host="app.diagrams.net" agent="Mozilla/5.0 (Windows NT 10.0; Win64; x64) AppleWebKit/537.36 (KHTML, like Gecko) Chrome/136.0.0.0 Safari/537.36" version="27.0.6">
  <diagram name="Página-1" id="HT0o0LouvNqeVzljS9h9">
    <mxGraphModel dx="1895" dy="1069" grid="1" gridSize="10" guides="1" tooltips="1" connect="1" arrows="1" fold="1" page="1" pageScale="1" pageWidth="827" pageHeight="1169" math="0" shadow="0">
      <root>
        <mxCell id="0" />
        <mxCell id="1" parent="0" />
        <mxCell id="uacnIvgp-EMg8y4nqsoG-1" value="Gestor" style="shape=umlLifeline;perimeter=lifelinePerimeter;whiteSpace=wrap;container=1;dropTarget=0;collapsible=0;recursiveResize=0;outlineConnect=0;portConstraint=eastwest;newEdgeStyle={&quot;edgeStyle&quot;:&quot;elbowEdgeStyle&quot;,&quot;elbow&quot;:&quot;vertical&quot;,&quot;curved&quot;:0,&quot;rounded&quot;:0};participant=umlActor;verticalAlign=bottom;labelPosition=center;verticalLabelPosition=top;align=center;size=65;" vertex="1" parent="1">
          <mxGeometry x="20" y="20" width="35" height="2910" as="geometry" />
        </mxCell>
        <mxCell id="uacnIvgp-EMg8y4nqsoG-2" value="Interface do Gestor" style="shape=umlLifeline;perimeter=lifelinePerimeter;whiteSpace=wrap;container=1;dropTarget=0;collapsible=0;recursiveResize=0;outlineConnect=0;portConstraint=eastwest;newEdgeStyle={&quot;edgeStyle&quot;:&quot;elbowEdgeStyle&quot;,&quot;elbow&quot;:&quot;vertical&quot;,&quot;curved&quot;:0,&quot;rounded&quot;:0};size=65;" vertex="1" parent="1">
          <mxGeometry x="388" y="20" width="156" height="2910" as="geometry" />
        </mxCell>
        <mxCell id="uacnIvgp-EMg8y4nqsoG-3" value="Controlador de Aprovação" style="shape=umlLifeline;perimeter=lifelinePerimeter;whiteSpace=wrap;container=1;dropTarget=0;collapsible=0;recursiveResize=0;outlineConnect=0;portConstraint=eastwest;newEdgeStyle={&quot;edgeStyle&quot;:&quot;elbowEdgeStyle&quot;,&quot;elbow&quot;:&quot;vertical&quot;,&quot;curved&quot;:0,&quot;rounded&quot;:0};size=65;" vertex="1" parent="1">
          <mxGeometry x="964" y="20" width="207" height="2910" as="geometry" />
        </mxCell>
        <mxCell id="uacnIvgp-EMg8y4nqsoG-4" value="Repositório de Solicitações" style="shape=umlLifeline;perimeter=lifelinePerimeter;whiteSpace=wrap;container=1;dropTarget=0;collapsible=0;recursiveResize=0;outlineConnect=0;portConstraint=eastwest;newEdgeStyle={&quot;edgeStyle&quot;:&quot;elbowEdgeStyle&quot;,&quot;elbow&quot;:&quot;vertical&quot;,&quot;curved&quot;:0,&quot;rounded&quot;:0};size=65;" vertex="1" parent="1">
          <mxGeometry x="1435" y="20" width="209" height="2910" as="geometry" />
        </mxCell>
        <mxCell id="uacnIvgp-EMg8y4nqsoG-5" value="Controlador de Recursos" style="shape=umlLifeline;perimeter=lifelinePerimeter;whiteSpace=wrap;container=1;dropTarget=0;collapsible=0;recursiveResize=0;outlineConnect=0;portConstraint=eastwest;newEdgeStyle={&quot;edgeStyle&quot;:&quot;elbowEdgeStyle&quot;,&quot;elbow&quot;:&quot;vertical&quot;,&quot;curved&quot;:0,&quot;rounded&quot;:0};size=65;" vertex="1" parent="1">
          <mxGeometry x="1694" y="20" width="194" height="2910" as="geometry" />
        </mxCell>
        <mxCell id="uacnIvgp-EMg8y4nqsoG-6" value="Aprovação" style="shape=umlLifeline;perimeter=lifelinePerimeter;whiteSpace=wrap;container=1;dropTarget=0;collapsible=0;recursiveResize=0;outlineConnect=0;portConstraint=eastwest;newEdgeStyle={&quot;edgeStyle&quot;:&quot;elbowEdgeStyle&quot;,&quot;elbow&quot;:&quot;vertical&quot;,&quot;curved&quot;:0,&quot;rounded&quot;:0};size=65;" vertex="1" parent="1">
          <mxGeometry x="1938" y="20" width="150" height="2910" as="geometry" />
        </mxCell>
        <mxCell id="uacnIvgp-EMg8y4nqsoG-7" value="Sistema de Notificação" style="shape=umlLifeline;perimeter=lifelinePerimeter;whiteSpace=wrap;container=1;dropTarget=0;collapsible=0;recursiveResize=0;outlineConnect=0;portConstraint=eastwest;newEdgeStyle={&quot;edgeStyle&quot;:&quot;elbowEdgeStyle&quot;,&quot;elbow&quot;:&quot;vertical&quot;,&quot;curved&quot;:0,&quot;rounded&quot;:0};size=65;" vertex="1" parent="1">
          <mxGeometry x="2138" y="20" width="182" height="2910" as="geometry" />
        </mxCell>
        <mxCell id="uacnIvgp-EMg8y4nqsoG-8" value="Sistema de Calendário" style="shape=umlLifeline;perimeter=lifelinePerimeter;whiteSpace=wrap;container=1;dropTarget=0;collapsible=0;recursiveResize=0;outlineConnect=0;portConstraint=eastwest;newEdgeStyle={&quot;edgeStyle&quot;:&quot;elbowEdgeStyle&quot;,&quot;elbow&quot;:&quot;vertical&quot;,&quot;curved&quot;:0,&quot;rounded&quot;:0};size=65;" vertex="1" parent="1">
          <mxGeometry x="2370" y="20" width="177" height="2910" as="geometry" />
        </mxCell>
        <mxCell id="uacnIvgp-EMg8y4nqsoG-9" value="alt" style="shape=umlFrame;dashed=1;pointerEvents=0;dropTarget=0;strokeColor=#B3B3B3;height=20;width=30" vertex="1" parent="1">
          <mxGeometry x="84" y="743" width="2385" height="2092" as="geometry" />
        </mxCell>
        <mxCell id="uacnIvgp-EMg8y4nqsoG-10" value="[Aprovar Solicitação]" style="text;strokeColor=none;fillColor=none;align=center;verticalAlign=middle;whiteSpace=wrap;" vertex="1" parent="uacnIvgp-EMg8y4nqsoG-9">
          <mxGeometry x="30" width="2355" height="20" as="geometry" />
        </mxCell>
        <mxCell id="uacnIvgp-EMg8y4nqsoG-11" value="[Rejeitar Solicitação]" style="shape=line;dashed=1;whiteSpace=wrap;verticalAlign=top;labelPosition=center;verticalLabelPosition=middle;align=center;strokeColor=#B3B3B3;" vertex="1" parent="uacnIvgp-EMg8y4nqsoG-9">
          <mxGeometry y="1402" width="2385" height="4" as="geometry" />
        </mxCell>
        <mxCell id="uacnIvgp-EMg8y4nqsoG-12" value="1. Acessa lista de solicitações pendentes" style="verticalAlign=bottom;edgeStyle=elbowEdgeStyle;elbow=vertical;curved=0;rounded=0;endArrow=block;" edge="1" parent="1" source="uacnIvgp-EMg8y4nqsoG-1" target="uacnIvgp-EMg8y4nqsoG-2">
          <mxGeometry relative="1" as="geometry">
            <Array as="points">
              <mxPoint x="289" y="129" />
            </Array>
          </mxGeometry>
        </mxCell>
        <mxCell id="uacnIvgp-EMg8y4nqsoG-13" value="2. obterSolicitacoesPendentes()" style="verticalAlign=bottom;edgeStyle=elbowEdgeStyle;elbow=vertical;curved=0;rounded=0;endArrow=block;" edge="1" parent="1" source="uacnIvgp-EMg8y4nqsoG-2" target="uacnIvgp-EMg8y4nqsoG-3">
          <mxGeometry relative="1" as="geometry">
            <Array as="points">
              <mxPoint x="775" y="183" />
            </Array>
          </mxGeometry>
        </mxCell>
        <mxCell id="uacnIvgp-EMg8y4nqsoG-14" value="3. buscarSolicitacoesPorStatus(PENDENTE)" style="verticalAlign=bottom;edgeStyle=elbowEdgeStyle;elbow=vertical;curved=0;rounded=0;endArrow=block;" edge="1" parent="1" source="uacnIvgp-EMg8y4nqsoG-3" target="uacnIvgp-EMg8y4nqsoG-4">
          <mxGeometry relative="1" as="geometry">
            <Array as="points">
              <mxPoint x="1312" y="237" />
            </Array>
          </mxGeometry>
        </mxCell>
        <mxCell id="uacnIvgp-EMg8y4nqsoG-15" value="4. listaSolicitacoesPendentes" style="verticalAlign=bottom;edgeStyle=elbowEdgeStyle;elbow=vertical;curved=0;rounded=0;dashed=1;dashPattern=2 3;endArrow=block;" edge="1" parent="1" source="uacnIvgp-EMg8y4nqsoG-4" target="uacnIvgp-EMg8y4nqsoG-3">
          <mxGeometry relative="1" as="geometry">
            <Array as="points">
              <mxPoint x="1315" y="291" />
            </Array>
          </mxGeometry>
        </mxCell>
        <mxCell id="uacnIvgp-EMg8y4nqsoG-16" value="5. listaSolicitacoesPendentes" style="verticalAlign=bottom;edgeStyle=elbowEdgeStyle;elbow=vertical;curved=0;rounded=0;dashed=1;dashPattern=2 3;endArrow=block;" edge="1" parent="1" source="uacnIvgp-EMg8y4nqsoG-3" target="uacnIvgp-EMg8y4nqsoG-2">
          <mxGeometry relative="1" as="geometry">
            <Array as="points">
              <mxPoint x="778" y="345" />
            </Array>
          </mxGeometry>
        </mxCell>
        <mxCell id="uacnIvgp-EMg8y4nqsoG-17" value="6. Exibe solicitações pendentes" style="verticalAlign=bottom;edgeStyle=elbowEdgeStyle;elbow=vertical;curved=0;rounded=0;dashed=1;dashPattern=2 3;endArrow=block;" edge="1" parent="1" source="uacnIvgp-EMg8y4nqsoG-2" target="uacnIvgp-EMg8y4nqsoG-1">
          <mxGeometry relative="1" as="geometry">
            <Array as="points">
              <mxPoint x="292" y="399" />
            </Array>
          </mxGeometry>
        </mxCell>
        <mxCell id="uacnIvgp-EMg8y4nqsoG-18" value="7. Seleciona uma solicitação" style="verticalAlign=bottom;edgeStyle=elbowEdgeStyle;elbow=vertical;curved=0;rounded=0;endArrow=block;" edge="1" parent="1" source="uacnIvgp-EMg8y4nqsoG-1" target="uacnIvgp-EMg8y4nqsoG-2">
          <mxGeometry relative="1" as="geometry">
            <Array as="points">
              <mxPoint x="289" y="453" />
            </Array>
          </mxGeometry>
        </mxCell>
        <mxCell id="uacnIvgp-EMg8y4nqsoG-19" value="8. obterDetalhesSolicitacao(idSolicitacao)" style="verticalAlign=bottom;edgeStyle=elbowEdgeStyle;elbow=vertical;curved=0;rounded=0;endArrow=block;" edge="1" parent="1" source="uacnIvgp-EMg8y4nqsoG-2" target="uacnIvgp-EMg8y4nqsoG-3">
          <mxGeometry relative="1" as="geometry">
            <Array as="points">
              <mxPoint x="775" y="507" />
            </Array>
          </mxGeometry>
        </mxCell>
        <mxCell id="uacnIvgp-EMg8y4nqsoG-20" value="9. buscarSolicitacaoPorId(idSolicitacao)" style="verticalAlign=bottom;edgeStyle=elbowEdgeStyle;elbow=vertical;curved=0;rounded=0;endArrow=block;" edge="1" parent="1" source="uacnIvgp-EMg8y4nqsoG-3" target="uacnIvgp-EMg8y4nqsoG-4">
          <mxGeometry relative="1" as="geometry">
            <Array as="points">
              <mxPoint x="1312" y="561" />
            </Array>
          </mxGeometry>
        </mxCell>
        <mxCell id="uacnIvgp-EMg8y4nqsoG-21" value="10. solicitacaoDetalhada" style="verticalAlign=bottom;edgeStyle=elbowEdgeStyle;elbow=vertical;curved=0;rounded=0;dashed=1;dashPattern=2 3;endArrow=block;" edge="1" parent="1" source="uacnIvgp-EMg8y4nqsoG-4" target="uacnIvgp-EMg8y4nqsoG-3">
          <mxGeometry relative="1" as="geometry">
            <Array as="points">
              <mxPoint x="1315" y="615" />
            </Array>
          </mxGeometry>
        </mxCell>
        <mxCell id="uacnIvgp-EMg8y4nqsoG-22" value="11. solicitacaoDetalhada" style="verticalAlign=bottom;edgeStyle=elbowEdgeStyle;elbow=vertical;curved=0;rounded=0;dashed=1;dashPattern=2 3;endArrow=block;" edge="1" parent="1" source="uacnIvgp-EMg8y4nqsoG-3" target="uacnIvgp-EMg8y4nqsoG-2">
          <mxGeometry relative="1" as="geometry">
            <Array as="points">
              <mxPoint x="778" y="669" />
            </Array>
          </mxGeometry>
        </mxCell>
        <mxCell id="uacnIvgp-EMg8y4nqsoG-23" value="12. Exibe detalhes da solicitação" style="verticalAlign=bottom;edgeStyle=elbowEdgeStyle;elbow=vertical;curved=0;rounded=0;dashed=1;dashPattern=2 3;endArrow=block;" edge="1" parent="1" source="uacnIvgp-EMg8y4nqsoG-2" target="uacnIvgp-EMg8y4nqsoG-1">
          <mxGeometry relative="1" as="geometry">
            <Array as="points">
              <mxPoint x="292" y="723" />
            </Array>
          </mxGeometry>
        </mxCell>
        <mxCell id="uacnIvgp-EMg8y4nqsoG-24" value="13. Decide aprovar solicitação" style="verticalAlign=bottom;edgeStyle=elbowEdgeStyle;elbow=vertical;curved=0;rounded=0;endArrow=block;" edge="1" parent="1" source="uacnIvgp-EMg8y4nqsoG-1" target="uacnIvgp-EMg8y4nqsoG-2">
          <mxGeometry relative="1" as="geometry">
            <Array as="points">
              <mxPoint x="289" y="824" />
            </Array>
          </mxGeometry>
        </mxCell>
        <mxCell id="uacnIvgp-EMg8y4nqsoG-25" value="14. verificarDisponibilidadeRecursos(dataHoraPartida, dataHoraRetorno)" style="verticalAlign=bottom;edgeStyle=elbowEdgeStyle;elbow=vertical;curved=0;rounded=0;endArrow=block;" edge="1" parent="1" source="uacnIvgp-EMg8y4nqsoG-2" target="uacnIvgp-EMg8y4nqsoG-3">
          <mxGeometry relative="1" as="geometry">
            <Array as="points">
              <mxPoint x="775" y="878" />
            </Array>
          </mxGeometry>
        </mxCell>
        <mxCell id="uacnIvgp-EMg8y4nqsoG-26" value="15. verificarVeiculosDisponiveis(dataHoraPartida, dataHoraRetorno)" style="verticalAlign=bottom;edgeStyle=elbowEdgeStyle;elbow=vertical;curved=0;rounded=0;endArrow=block;" edge="1" parent="1" source="uacnIvgp-EMg8y4nqsoG-3" target="uacnIvgp-EMg8y4nqsoG-5">
          <mxGeometry relative="1" as="geometry">
            <Array as="points">
              <mxPoint x="1437" y="932" />
            </Array>
          </mxGeometry>
        </mxCell>
        <mxCell id="uacnIvgp-EMg8y4nqsoG-27" value="16. listaVeiculosDisponiveis" style="verticalAlign=bottom;edgeStyle=elbowEdgeStyle;elbow=vertical;curved=0;rounded=0;dashed=1;dashPattern=2 3;endArrow=block;" edge="1" parent="1" source="uacnIvgp-EMg8y4nqsoG-5" target="uacnIvgp-EMg8y4nqsoG-3">
          <mxGeometry relative="1" as="geometry">
            <Array as="points">
              <mxPoint x="1440" y="986" />
            </Array>
          </mxGeometry>
        </mxCell>
        <mxCell id="uacnIvgp-EMg8y4nqsoG-28" value="17. verificarMotoristasDisponiveis(dataHoraPartida, dataHoraRetorno)" style="verticalAlign=bottom;edgeStyle=elbowEdgeStyle;elbow=vertical;curved=0;rounded=0;endArrow=block;" edge="1" parent="1" source="uacnIvgp-EMg8y4nqsoG-3" target="uacnIvgp-EMg8y4nqsoG-5">
          <mxGeometry relative="1" as="geometry">
            <Array as="points">
              <mxPoint x="1437" y="1040" />
            </Array>
          </mxGeometry>
        </mxCell>
        <mxCell id="uacnIvgp-EMg8y4nqsoG-29" value="18. listaMotoristasDisponiveis" style="verticalAlign=bottom;edgeStyle=elbowEdgeStyle;elbow=vertical;curved=0;rounded=0;dashed=1;dashPattern=2 3;endArrow=block;" edge="1" parent="1" source="uacnIvgp-EMg8y4nqsoG-5" target="uacnIvgp-EMg8y4nqsoG-3">
          <mxGeometry relative="1" as="geometry">
            <Array as="points">
              <mxPoint x="1440" y="1094" />
            </Array>
          </mxGeometry>
        </mxCell>
        <mxCell id="uacnIvgp-EMg8y4nqsoG-30" value="19. recursosDisponiveis(listaVeiculosDisponiveis, listaMotoristasDisponiveis)" style="verticalAlign=bottom;edgeStyle=elbowEdgeStyle;elbow=vertical;curved=0;rounded=0;dashed=1;dashPattern=2 3;endArrow=block;" edge="1" parent="1" source="uacnIvgp-EMg8y4nqsoG-3" target="uacnIvgp-EMg8y4nqsoG-2">
          <mxGeometry relative="1" as="geometry">
            <Array as="points">
              <mxPoint x="778" y="1148" />
            </Array>
          </mxGeometry>
        </mxCell>
        <mxCell id="uacnIvgp-EMg8y4nqsoG-31" value="20. Exibe recursos disponíveis para seleção" style="verticalAlign=bottom;edgeStyle=elbowEdgeStyle;elbow=vertical;curved=0;rounded=0;dashed=1;dashPattern=2 3;endArrow=block;" edge="1" parent="1" source="uacnIvgp-EMg8y4nqsoG-2" target="uacnIvgp-EMg8y4nqsoG-1">
          <mxGeometry relative="1" as="geometry">
            <Array as="points">
              <mxPoint x="292" y="1202" />
            </Array>
          </mxGeometry>
        </mxCell>
        <mxCell id="uacnIvgp-EMg8y4nqsoG-32" value="21. Seleciona motorista e veículo" style="verticalAlign=bottom;edgeStyle=elbowEdgeStyle;elbow=vertical;curved=0;rounded=0;endArrow=block;" edge="1" parent="1" source="uacnIvgp-EMg8y4nqsoG-1" target="uacnIvgp-EMg8y4nqsoG-2">
          <mxGeometry relative="1" as="geometry">
            <Array as="points">
              <mxPoint x="289" y="1256" />
            </Array>
          </mxGeometry>
        </mxCell>
        <mxCell id="uacnIvgp-EMg8y4nqsoG-33" value="22. Confirma aprovação" style="verticalAlign=bottom;edgeStyle=elbowEdgeStyle;elbow=vertical;curved=0;rounded=0;endArrow=block;" edge="1" parent="1" source="uacnIvgp-EMg8y4nqsoG-1" target="uacnIvgp-EMg8y4nqsoG-2">
          <mxGeometry relative="1" as="geometry">
            <Array as="points">
              <mxPoint x="289" y="1310" />
            </Array>
          </mxGeometry>
        </mxCell>
        <mxCell id="uacnIvgp-EMg8y4nqsoG-34" value="23. aprovarSolicitacao(idSolicitacao, idMotorista, idVeiculo, observacoes)" style="verticalAlign=bottom;edgeStyle=elbowEdgeStyle;elbow=vertical;curved=0;rounded=0;endArrow=block;" edge="1" parent="1" source="uacnIvgp-EMg8y4nqsoG-2" target="uacnIvgp-EMg8y4nqsoG-3">
          <mxGeometry relative="1" as="geometry">
            <Array as="points">
              <mxPoint x="775" y="1364" />
            </Array>
          </mxGeometry>
        </mxCell>
        <mxCell id="uacnIvgp-EMg8y4nqsoG-35" value="24. criar(idSolicitacao, idGestor, &quot;APROVADA&quot;, observacoes)" style="verticalAlign=bottom;edgeStyle=elbowEdgeStyle;elbow=vertical;curved=0;rounded=0;endArrow=block;" edge="1" parent="1" source="uacnIvgp-EMg8y4nqsoG-3" target="uacnIvgp-EMg8y4nqsoG-6">
          <mxGeometry relative="1" as="geometry">
            <Array as="points">
              <mxPoint x="1548" y="1418" />
            </Array>
          </mxGeometry>
        </mxCell>
        <mxCell id="uacnIvgp-EMg8y4nqsoG-36" value="25. aprovacaoRegistrada" style="verticalAlign=bottom;edgeStyle=elbowEdgeStyle;elbow=vertical;curved=0;rounded=0;dashed=1;dashPattern=2 3;endArrow=block;" edge="1" parent="1" source="uacnIvgp-EMg8y4nqsoG-6" target="uacnIvgp-EMg8y4nqsoG-3">
          <mxGeometry relative="1" as="geometry">
            <Array as="points">
              <mxPoint x="1551" y="1472" />
            </Array>
          </mxGeometry>
        </mxCell>
        <mxCell id="uacnIvgp-EMg8y4nqsoG-37" value="26. atualizarStatusSolicitacao(idSolicitacao, &quot;APROVADA&quot;)" style="verticalAlign=bottom;edgeStyle=elbowEdgeStyle;elbow=vertical;curved=0;rounded=0;endArrow=block;" edge="1" parent="1" source="uacnIvgp-EMg8y4nqsoG-3" target="uacnIvgp-EMg8y4nqsoG-4">
          <mxGeometry relative="1" as="geometry">
            <Array as="points">
              <mxPoint x="1312" y="1526" />
            </Array>
          </mxGeometry>
        </mxCell>
        <mxCell id="uacnIvgp-EMg8y4nqsoG-38" value="27. statusAtualizado" style="verticalAlign=bottom;edgeStyle=elbowEdgeStyle;elbow=vertical;curved=0;rounded=0;dashed=1;dashPattern=2 3;endArrow=block;" edge="1" parent="1" source="uacnIvgp-EMg8y4nqsoG-4" target="uacnIvgp-EMg8y4nqsoG-3">
          <mxGeometry relative="1" as="geometry">
            <Array as="points">
              <mxPoint x="1315" y="1580" />
            </Array>
          </mxGeometry>
        </mxCell>
        <mxCell id="uacnIvgp-EMg8y4nqsoG-39" value="28. reservarVeiculo(idVeiculo, dataHoraPartida, dataHoraRetorno)" style="verticalAlign=bottom;edgeStyle=elbowEdgeStyle;elbow=vertical;curved=0;rounded=0;endArrow=block;" edge="1" parent="1" source="uacnIvgp-EMg8y4nqsoG-3" target="uacnIvgp-EMg8y4nqsoG-5">
          <mxGeometry relative="1" as="geometry">
            <Array as="points">
              <mxPoint x="1437" y="1634" />
            </Array>
          </mxGeometry>
        </mxCell>
        <mxCell id="uacnIvgp-EMg8y4nqsoG-40" value="29. veiculoReservado" style="verticalAlign=bottom;edgeStyle=elbowEdgeStyle;elbow=vertical;curved=0;rounded=0;dashed=1;dashPattern=2 3;endArrow=block;" edge="1" parent="1" source="uacnIvgp-EMg8y4nqsoG-5" target="uacnIvgp-EMg8y4nqsoG-3">
          <mxGeometry relative="1" as="geometry">
            <Array as="points">
              <mxPoint x="1440" y="1688" />
            </Array>
          </mxGeometry>
        </mxCell>
        <mxCell id="uacnIvgp-EMg8y4nqsoG-41" value="30. atribuirMotorista(idMotorista, dataHoraPartida, dataHoraRetorno)" style="verticalAlign=bottom;edgeStyle=elbowEdgeStyle;elbow=vertical;curved=0;rounded=0;endArrow=block;" edge="1" parent="1" source="uacnIvgp-EMg8y4nqsoG-3" target="uacnIvgp-EMg8y4nqsoG-5">
          <mxGeometry relative="1" as="geometry">
            <Array as="points">
              <mxPoint x="1437" y="1742" />
            </Array>
          </mxGeometry>
        </mxCell>
        <mxCell id="uacnIvgp-EMg8y4nqsoG-42" value="31. motoristaAtribuido" style="verticalAlign=bottom;edgeStyle=elbowEdgeStyle;elbow=vertical;curved=0;rounded=0;dashed=1;dashPattern=2 3;endArrow=block;" edge="1" parent="1" source="uacnIvgp-EMg8y4nqsoG-5" target="uacnIvgp-EMg8y4nqsoG-3">
          <mxGeometry relative="1" as="geometry">
            <Array as="points">
              <mxPoint x="1440" y="1796" />
            </Array>
          </mxGeometry>
        </mxCell>
        <mxCell id="uacnIvgp-EMg8y4nqsoG-43" value="32. notificarAprovacao(idSolicitacao, idMotorista)" style="verticalAlign=bottom;edgeStyle=elbowEdgeStyle;elbow=vertical;curved=0;rounded=0;endArrow=block;" edge="1" parent="1" source="uacnIvgp-EMg8y4nqsoG-3" target="uacnIvgp-EMg8y4nqsoG-7">
          <mxGeometry relative="1" as="geometry">
            <Array as="points">
              <mxPoint x="1656" y="1850" />
            </Array>
          </mxGeometry>
        </mxCell>
        <mxCell id="uacnIvgp-EMg8y4nqsoG-44" value="33. notificacoesEnviadas" style="verticalAlign=bottom;edgeStyle=elbowEdgeStyle;elbow=vertical;curved=0;rounded=0;dashed=1;dashPattern=2 3;endArrow=block;" edge="1" parent="1" source="uacnIvgp-EMg8y4nqsoG-7" target="uacnIvgp-EMg8y4nqsoG-3">
          <mxGeometry relative="1" as="geometry">
            <Array as="points">
              <mxPoint x="1659" y="1904" />
            </Array>
          </mxGeometry>
        </mxCell>
        <mxCell id="uacnIvgp-EMg8y4nqsoG-45" value="34. adicionarEventoCalendario(dadosViagem)" style="verticalAlign=bottom;edgeStyle=elbowEdgeStyle;elbow=vertical;curved=0;rounded=0;endArrow=block;" edge="1" parent="1" source="uacnIvgp-EMg8y4nqsoG-3" target="uacnIvgp-EMg8y4nqsoG-8">
          <mxGeometry relative="1" as="geometry">
            <Array as="points">
              <mxPoint x="1771" y="1958" />
            </Array>
          </mxGeometry>
        </mxCell>
        <mxCell id="uacnIvgp-EMg8y4nqsoG-46" value="35. eventoAdicionado" style="verticalAlign=bottom;edgeStyle=elbowEdgeStyle;elbow=vertical;curved=0;rounded=0;dashed=1;dashPattern=2 3;endArrow=block;" edge="1" parent="1" source="uacnIvgp-EMg8y4nqsoG-8" target="uacnIvgp-EMg8y4nqsoG-3">
          <mxGeometry relative="1" as="geometry">
            <Array as="points">
              <mxPoint x="1774" y="2012" />
            </Array>
          </mxGeometry>
        </mxCell>
        <mxCell id="uacnIvgp-EMg8y4nqsoG-47" value="36. aprovacaoCompletada" style="verticalAlign=bottom;edgeStyle=elbowEdgeStyle;elbow=vertical;curved=0;rounded=0;dashed=1;dashPattern=2 3;endArrow=block;" edge="1" parent="1" source="uacnIvgp-EMg8y4nqsoG-3" target="uacnIvgp-EMg8y4nqsoG-2">
          <mxGeometry relative="1" as="geometry">
            <Array as="points">
              <mxPoint x="778" y="2066" />
            </Array>
          </mxGeometry>
        </mxCell>
        <mxCell id="uacnIvgp-EMg8y4nqsoG-48" value="37. Exibe confirmação de aprovação" style="verticalAlign=bottom;edgeStyle=elbowEdgeStyle;elbow=vertical;curved=0;rounded=0;dashed=1;dashPattern=2 3;endArrow=block;" edge="1" parent="1" source="uacnIvgp-EMg8y4nqsoG-2" target="uacnIvgp-EMg8y4nqsoG-1">
          <mxGeometry relative="1" as="geometry">
            <Array as="points">
              <mxPoint x="292" y="2120" />
            </Array>
          </mxGeometry>
        </mxCell>
        <mxCell id="uacnIvgp-EMg8y4nqsoG-49" value="13. Decide rejeitar solicitação" style="verticalAlign=bottom;edgeStyle=elbowEdgeStyle;elbow=vertical;curved=0;rounded=0;endArrow=block;" edge="1" parent="1" source="uacnIvgp-EMg8y4nqsoG-1" target="uacnIvgp-EMg8y4nqsoG-2">
          <mxGeometry relative="1" as="geometry">
            <Array as="points">
              <mxPoint x="289" y="2221" />
            </Array>
          </mxGeometry>
        </mxCell>
        <mxCell id="uacnIvgp-EMg8y4nqsoG-50" value="14. Informa motivo da rejeição" style="verticalAlign=bottom;edgeStyle=elbowEdgeStyle;elbow=vertical;curved=0;rounded=0;endArrow=block;" edge="1" parent="1" source="uacnIvgp-EMg8y4nqsoG-1" target="uacnIvgp-EMg8y4nqsoG-2">
          <mxGeometry relative="1" as="geometry">
            <Array as="points">
              <mxPoint x="289" y="2275" />
            </Array>
          </mxGeometry>
        </mxCell>
        <mxCell id="uacnIvgp-EMg8y4nqsoG-51" value="15. Confirma rejeição" style="verticalAlign=bottom;edgeStyle=elbowEdgeStyle;elbow=vertical;curved=0;rounded=0;endArrow=block;" edge="1" parent="1" source="uacnIvgp-EMg8y4nqsoG-1" target="uacnIvgp-EMg8y4nqsoG-2">
          <mxGeometry relative="1" as="geometry">
            <Array as="points">
              <mxPoint x="289" y="2329" />
            </Array>
          </mxGeometry>
        </mxCell>
        <mxCell id="uacnIvgp-EMg8y4nqsoG-52" value="16. rejeitarSolicitacao(idSolicitacao, motivoRejeicao)" style="verticalAlign=bottom;edgeStyle=elbowEdgeStyle;elbow=vertical;curved=0;rounded=0;endArrow=block;" edge="1" parent="1" source="uacnIvgp-EMg8y4nqsoG-2" target="uacnIvgp-EMg8y4nqsoG-3">
          <mxGeometry relative="1" as="geometry">
            <Array as="points">
              <mxPoint x="775" y="2383" />
            </Array>
          </mxGeometry>
        </mxCell>
        <mxCell id="uacnIvgp-EMg8y4nqsoG-53" value="17. criar(idSolicitacao, idGestor, &quot;REJEITADA&quot;, motivoRejeicao)" style="verticalAlign=bottom;edgeStyle=elbowEdgeStyle;elbow=vertical;curved=0;rounded=0;endArrow=block;" edge="1" parent="1" source="uacnIvgp-EMg8y4nqsoG-3" target="uacnIvgp-EMg8y4nqsoG-6">
          <mxGeometry relative="1" as="geometry">
            <Array as="points">
              <mxPoint x="1548" y="2437" />
            </Array>
          </mxGeometry>
        </mxCell>
        <mxCell id="uacnIvgp-EMg8y4nqsoG-54" value="18. rejeicaoRegistrada" style="verticalAlign=bottom;edgeStyle=elbowEdgeStyle;elbow=vertical;curved=0;rounded=0;dashed=1;dashPattern=2 3;endArrow=block;" edge="1" parent="1" source="uacnIvgp-EMg8y4nqsoG-6" target="uacnIvgp-EMg8y4nqsoG-3">
          <mxGeometry relative="1" as="geometry">
            <Array as="points">
              <mxPoint x="1551" y="2491" />
            </Array>
          </mxGeometry>
        </mxCell>
        <mxCell id="uacnIvgp-EMg8y4nqsoG-55" value="19. atualizarStatusSolicitacao(idSolicitacao, &quot;REJEITADA&quot;)" style="verticalAlign=bottom;edgeStyle=elbowEdgeStyle;elbow=vertical;curved=0;rounded=0;endArrow=block;" edge="1" parent="1" source="uacnIvgp-EMg8y4nqsoG-3" target="uacnIvgp-EMg8y4nqsoG-4">
          <mxGeometry relative="1" as="geometry">
            <Array as="points">
              <mxPoint x="1312" y="2545" />
            </Array>
          </mxGeometry>
        </mxCell>
        <mxCell id="uacnIvgp-EMg8y4nqsoG-56" value="20. statusAtualizado" style="verticalAlign=bottom;edgeStyle=elbowEdgeStyle;elbow=vertical;curved=0;rounded=0;dashed=1;dashPattern=2 3;endArrow=block;" edge="1" parent="1" source="uacnIvgp-EMg8y4nqsoG-4" target="uacnIvgp-EMg8y4nqsoG-3">
          <mxGeometry relative="1" as="geometry">
            <Array as="points">
              <mxPoint x="1315" y="2599" />
            </Array>
          </mxGeometry>
        </mxCell>
        <mxCell id="uacnIvgp-EMg8y4nqsoG-57" value="21. notificarRejeicao(idSolicitacao, motivoRejeicao)" style="verticalAlign=bottom;edgeStyle=elbowEdgeStyle;elbow=vertical;curved=0;rounded=0;endArrow=block;" edge="1" parent="1" source="uacnIvgp-EMg8y4nqsoG-3" target="uacnIvgp-EMg8y4nqsoG-7">
          <mxGeometry relative="1" as="geometry">
            <Array as="points">
              <mxPoint x="1656" y="2653" />
            </Array>
          </mxGeometry>
        </mxCell>
        <mxCell id="uacnIvgp-EMg8y4nqsoG-58" value="22. notificacaoEnviada" style="verticalAlign=bottom;edgeStyle=elbowEdgeStyle;elbow=vertical;curved=0;rounded=0;dashed=1;dashPattern=2 3;endArrow=block;" edge="1" parent="1" source="uacnIvgp-EMg8y4nqsoG-7" target="uacnIvgp-EMg8y4nqsoG-3">
          <mxGeometry relative="1" as="geometry">
            <Array as="points">
              <mxPoint x="1659" y="2707" />
            </Array>
          </mxGeometry>
        </mxCell>
        <mxCell id="uacnIvgp-EMg8y4nqsoG-59" value="23. rejeicaoCompletada" style="verticalAlign=bottom;edgeStyle=elbowEdgeStyle;elbow=vertical;curved=0;rounded=0;dashed=1;dashPattern=2 3;endArrow=block;" edge="1" parent="1" source="uacnIvgp-EMg8y4nqsoG-3" target="uacnIvgp-EMg8y4nqsoG-2">
          <mxGeometry relative="1" as="geometry">
            <Array as="points">
              <mxPoint x="778" y="2761" />
            </Array>
          </mxGeometry>
        </mxCell>
        <mxCell id="uacnIvgp-EMg8y4nqsoG-60" value="24. Exibe confirmação de rejeição" style="verticalAlign=bottom;edgeStyle=elbowEdgeStyle;elbow=vertical;curved=0;rounded=0;dashed=1;dashPattern=2 3;endArrow=block;" edge="1" parent="1" source="uacnIvgp-EMg8y4nqsoG-2" target="uacnIvgp-EMg8y4nqsoG-1">
          <mxGeometry relative="1" as="geometry">
            <Array as="points">
              <mxPoint x="292" y="2815" />
            </Array>
          </mxGeometry>
        </mxCell>
      </root>
    </mxGraphModel>
  </diagram>
</mxfile>
